<?xml version="1.0" encoding="utf-8" standalone="no"?>
<!DOCTYPE svg PUBLIC "-//W3C//DTD SVG 1.1//EN"
  "http://www.w3.org/Graphics/SVG/1.1/DTD/svg11.dtd">
<svg xmlns:xlink="http://www.w3.org/1999/xlink" width="720pt" height="432pt" viewBox="0 0 720 432" xmlns="http://www.w3.org/2000/svg" version="1.1">
 <metadata>
  <rdf:RDF xmlns:dc="http://purl.org/dc/elements/1.1/" xmlns:cc="http://creativecommons.org/ns#" xmlns:rdf="http://www.w3.org/1999/02/22-rdf-syntax-ns#">
   <cc:Work>
    <dc:type rdf:resource="http://purl.org/dc/dcmitype/StillImage"/>
    <dc:date>2024-11-08T08:40:32.817557</dc:date>
    <dc:format>image/svg+xml</dc:format>
    <dc:creator>
     <cc:Agent>
      <dc:title>Matplotlib v3.6.3, https://matplotlib.org/</dc:title>
     </cc:Agent>
    </dc:creator>
   </cc:Work>
  </rdf:RDF>
 </metadata>
 <defs>
  <style type="text/css">*{stroke-linejoin: round; stroke-linecap: butt}</style>
 </defs>
 <g id="figure_1">
  <g id="patch_1">
   <path d="M 0 432 
L 720 432 
L 720 0 
L 0 0 
z
" style="fill: #ffffff"/>
  </g>
  <g id="axes_1">
   <g id="patch_2">
    <path d="M 30.58 376.400464 
L 709.2 376.400464 
L 709.2 25.44 
L 30.58 25.44 
z
" style="fill: #ffffff"/>
   </g>
   <g id="matplotlib.axis_1">
    <g id="xtick_1">
     <g id="line2d_1">
      <path d="M 145.330903 376.400464 
L 145.330903 25.44 
" clip-path="url(#paf3af6357c)" style="fill: none; stroke-dasharray: 1.85,0.8; stroke-dashoffset: 0; stroke: #b0b0b0; stroke-width: 0.5"/>
     </g>
     <g id="line2d_2">
      <defs>
       <path id="m6a6edc2539" d="M 0 0 
L 0 3.5 
" style="stroke: #000000; stroke-width: 0.8"/>
      </defs>
      <g>
       <use xlink:href="#m6a6edc2539" x="145.330903" y="376.400464" style="stroke: #000000; stroke-width: 0.8"/>
      </g>
     </g>
     <g id="text_1">
      <!-- 2016-01-01 -->
      <g transform="translate(93.961452 419.038716) rotate(-30) scale(0.1 -0.1)">
       <defs>
        <path id="DejaVuSans-32" d="M 1228 531 
L 3431 531 
L 3431 0 
L 469 0 
L 469 531 
Q 828 903 1448 1529 
Q 2069 2156 2228 2338 
Q 2531 2678 2651 2914 
Q 2772 3150 2772 3378 
Q 2772 3750 2511 3984 
Q 2250 4219 1831 4219 
Q 1534 4219 1204 4116 
Q 875 4013 500 3803 
L 500 4441 
Q 881 4594 1212 4672 
Q 1544 4750 1819 4750 
Q 2544 4750 2975 4387 
Q 3406 4025 3406 3419 
Q 3406 3131 3298 2873 
Q 3191 2616 2906 2266 
Q 2828 2175 2409 1742 
Q 1991 1309 1228 531 
z
" transform="scale(0.015625)"/>
        <path id="DejaVuSans-30" d="M 2034 4250 
Q 1547 4250 1301 3770 
Q 1056 3291 1056 2328 
Q 1056 1369 1301 889 
Q 1547 409 2034 409 
Q 2525 409 2770 889 
Q 3016 1369 3016 2328 
Q 3016 3291 2770 3770 
Q 2525 4250 2034 4250 
z
M 2034 4750 
Q 2819 4750 3233 4129 
Q 3647 3509 3647 2328 
Q 3647 1150 3233 529 
Q 2819 -91 2034 -91 
Q 1250 -91 836 529 
Q 422 1150 422 2328 
Q 422 3509 836 4129 
Q 1250 4750 2034 4750 
z
" transform="scale(0.015625)"/>
        <path id="DejaVuSans-31" d="M 794 531 
L 1825 531 
L 1825 4091 
L 703 3866 
L 703 4441 
L 1819 4666 
L 2450 4666 
L 2450 531 
L 3481 531 
L 3481 0 
L 794 0 
L 794 531 
z
" transform="scale(0.015625)"/>
        <path id="DejaVuSans-36" d="M 2113 2584 
Q 1688 2584 1439 2293 
Q 1191 2003 1191 1497 
Q 1191 994 1439 701 
Q 1688 409 2113 409 
Q 2538 409 2786 701 
Q 3034 994 3034 1497 
Q 3034 2003 2786 2293 
Q 2538 2584 2113 2584 
z
M 3366 4563 
L 3366 3988 
Q 3128 4100 2886 4159 
Q 2644 4219 2406 4219 
Q 1781 4219 1451 3797 
Q 1122 3375 1075 2522 
Q 1259 2794 1537 2939 
Q 1816 3084 2150 3084 
Q 2853 3084 3261 2657 
Q 3669 2231 3669 1497 
Q 3669 778 3244 343 
Q 2819 -91 2113 -91 
Q 1303 -91 875 529 
Q 447 1150 447 2328 
Q 447 3434 972 4092 
Q 1497 4750 2381 4750 
Q 2619 4750 2861 4703 
Q 3103 4656 3366 4563 
z
" transform="scale(0.015625)"/>
        <path id="DejaVuSans-2d" d="M 313 2009 
L 1997 2009 
L 1997 1497 
L 313 1497 
L 313 2009 
z
" transform="scale(0.015625)"/>
       </defs>
       <use xlink:href="#DejaVuSans-32"/>
       <use xlink:href="#DejaVuSans-30" x="63.623047"/>
       <use xlink:href="#DejaVuSans-31" x="127.246094"/>
       <use xlink:href="#DejaVuSans-36" x="190.869141"/>
       <use xlink:href="#DejaVuSans-2d" x="254.492188"/>
       <use xlink:href="#DejaVuSans-30" x="290.576172"/>
       <use xlink:href="#DejaVuSans-31" x="354.199219"/>
       <use xlink:href="#DejaVuSans-2d" x="417.822266"/>
       <use xlink:href="#DejaVuSans-30" x="453.90625"/>
       <use xlink:href="#DejaVuSans-31" x="517.529297"/>
      </g>
     </g>
    </g>
    <g id="xtick_2">
     <g id="line2d_3">
      <path d="M 265.807451 376.400464 
L 265.807451 25.44 
" clip-path="url(#paf3af6357c)" style="fill: none; stroke-dasharray: 1.85,0.8; stroke-dashoffset: 0; stroke: #b0b0b0; stroke-width: 0.5"/>
     </g>
     <g id="line2d_4">
      <g>
       <use xlink:href="#m6a6edc2539" x="265.807451" y="376.400464" style="stroke: #000000; stroke-width: 0.8"/>
      </g>
     </g>
     <g id="text_2">
      <!-- 2018-01-01 -->
      <g transform="translate(214.437999 419.038716) rotate(-30) scale(0.1 -0.1)">
       <defs>
        <path id="DejaVuSans-38" d="M 2034 2216 
Q 1584 2216 1326 1975 
Q 1069 1734 1069 1313 
Q 1069 891 1326 650 
Q 1584 409 2034 409 
Q 2484 409 2743 651 
Q 3003 894 3003 1313 
Q 3003 1734 2745 1975 
Q 2488 2216 2034 2216 
z
M 1403 2484 
Q 997 2584 770 2862 
Q 544 3141 544 3541 
Q 544 4100 942 4425 
Q 1341 4750 2034 4750 
Q 2731 4750 3128 4425 
Q 3525 4100 3525 3541 
Q 3525 3141 3298 2862 
Q 3072 2584 2669 2484 
Q 3125 2378 3379 2068 
Q 3634 1759 3634 1313 
Q 3634 634 3220 271 
Q 2806 -91 2034 -91 
Q 1263 -91 848 271 
Q 434 634 434 1313 
Q 434 1759 690 2068 
Q 947 2378 1403 2484 
z
M 1172 3481 
Q 1172 3119 1398 2916 
Q 1625 2713 2034 2713 
Q 2441 2713 2670 2916 
Q 2900 3119 2900 3481 
Q 2900 3844 2670 4047 
Q 2441 4250 2034 4250 
Q 1625 4250 1398 4047 
Q 1172 3844 1172 3481 
z
" transform="scale(0.015625)"/>
       </defs>
       <use xlink:href="#DejaVuSans-32"/>
       <use xlink:href="#DejaVuSans-30" x="63.623047"/>
       <use xlink:href="#DejaVuSans-31" x="127.246094"/>
       <use xlink:href="#DejaVuSans-38" x="190.869141"/>
       <use xlink:href="#DejaVuSans-2d" x="254.492188"/>
       <use xlink:href="#DejaVuSans-30" x="290.576172"/>
       <use xlink:href="#DejaVuSans-31" x="354.199219"/>
       <use xlink:href="#DejaVuSans-2d" x="417.822266"/>
       <use xlink:href="#DejaVuSans-30" x="453.90625"/>
       <use xlink:href="#DejaVuSans-31" x="517.529297"/>
      </g>
     </g>
    </g>
    <g id="xtick_3">
     <g id="line2d_5">
      <path d="M 386.119188 376.400464 
L 386.119188 25.44 
" clip-path="url(#paf3af6357c)" style="fill: none; stroke-dasharray: 1.85,0.8; stroke-dashoffset: 0; stroke: #b0b0b0; stroke-width: 0.5"/>
     </g>
     <g id="line2d_6">
      <g>
       <use xlink:href="#m6a6edc2539" x="386.119188" y="376.400464" style="stroke: #000000; stroke-width: 0.8"/>
      </g>
     </g>
     <g id="text_3">
      <!-- 2020-01-01 -->
      <g transform="translate(334.749736 419.038716) rotate(-30) scale(0.1 -0.1)">
       <use xlink:href="#DejaVuSans-32"/>
       <use xlink:href="#DejaVuSans-30" x="63.623047"/>
       <use xlink:href="#DejaVuSans-32" x="127.246094"/>
       <use xlink:href="#DejaVuSans-30" x="190.869141"/>
       <use xlink:href="#DejaVuSans-2d" x="254.492188"/>
       <use xlink:href="#DejaVuSans-30" x="290.576172"/>
       <use xlink:href="#DejaVuSans-31" x="354.199219"/>
       <use xlink:href="#DejaVuSans-2d" x="417.822266"/>
       <use xlink:href="#DejaVuSans-30" x="453.90625"/>
       <use xlink:href="#DejaVuSans-31" x="517.529297"/>
      </g>
     </g>
    </g>
    <g id="xtick_4">
     <g id="line2d_7">
      <path d="M 506.595735 376.400464 
L 506.595735 25.44 
" clip-path="url(#paf3af6357c)" style="fill: none; stroke-dasharray: 1.85,0.8; stroke-dashoffset: 0; stroke: #b0b0b0; stroke-width: 0.5"/>
     </g>
     <g id="line2d_8">
      <g>
       <use xlink:href="#m6a6edc2539" x="506.595735" y="376.400464" style="stroke: #000000; stroke-width: 0.8"/>
      </g>
     </g>
     <g id="text_4">
      <!-- 2022-01-01 -->
      <g transform="translate(455.226284 419.038716) rotate(-30) scale(0.1 -0.1)">
       <use xlink:href="#DejaVuSans-32"/>
       <use xlink:href="#DejaVuSans-30" x="63.623047"/>
       <use xlink:href="#DejaVuSans-32" x="127.246094"/>
       <use xlink:href="#DejaVuSans-32" x="190.869141"/>
       <use xlink:href="#DejaVuSans-2d" x="254.492188"/>
       <use xlink:href="#DejaVuSans-30" x="290.576172"/>
       <use xlink:href="#DejaVuSans-31" x="354.199219"/>
       <use xlink:href="#DejaVuSans-2d" x="417.822266"/>
       <use xlink:href="#DejaVuSans-30" x="453.90625"/>
       <use xlink:href="#DejaVuSans-31" x="517.529297"/>
      </g>
     </g>
    </g>
    <g id="xtick_5">
     <g id="line2d_9">
      <path d="M 626.907472 376.400464 
L 626.907472 25.44 
" clip-path="url(#paf3af6357c)" style="fill: none; stroke-dasharray: 1.85,0.8; stroke-dashoffset: 0; stroke: #b0b0b0; stroke-width: 0.5"/>
     </g>
     <g id="line2d_10">
      <g>
       <use xlink:href="#m6a6edc2539" x="626.907472" y="376.400464" style="stroke: #000000; stroke-width: 0.8"/>
      </g>
     </g>
     <g id="text_5">
      <!-- 2024-01-01 -->
      <g transform="translate(575.538021 419.038716) rotate(-30) scale(0.1 -0.1)">
       <defs>
        <path id="DejaVuSans-34" d="M 2419 4116 
L 825 1625 
L 2419 1625 
L 2419 4116 
z
M 2253 4666 
L 3047 4666 
L 3047 1625 
L 3713 1625 
L 3713 1100 
L 3047 1100 
L 3047 0 
L 2419 0 
L 2419 1100 
L 313 1100 
L 313 1709 
L 2253 4666 
z
" transform="scale(0.015625)"/>
       </defs>
       <use xlink:href="#DejaVuSans-32"/>
       <use xlink:href="#DejaVuSans-30" x="63.623047"/>
       <use xlink:href="#DejaVuSans-32" x="127.246094"/>
       <use xlink:href="#DejaVuSans-34" x="190.869141"/>
       <use xlink:href="#DejaVuSans-2d" x="254.492188"/>
       <use xlink:href="#DejaVuSans-30" x="290.576172"/>
       <use xlink:href="#DejaVuSans-31" x="354.199219"/>
       <use xlink:href="#DejaVuSans-2d" x="417.822266"/>
       <use xlink:href="#DejaVuSans-30" x="453.90625"/>
       <use xlink:href="#DejaVuSans-31" x="517.529297"/>
      </g>
     </g>
    </g>
   </g>
   <g id="matplotlib.axis_2">
    <g id="ytick_1">
     <g id="line2d_11">
      <path d="M 30.58 360.447716 
L 709.2 360.447716 
" clip-path="url(#paf3af6357c)" style="fill: none; stroke-dasharray: 1.85,0.8; stroke-dashoffset: 0; stroke: #b0b0b0; stroke-width: 0.5"/>
     </g>
     <g id="line2d_12">
      <defs>
       <path id="m73ed473437" d="M 0 0 
L -3.5 0 
" style="stroke: #000000; stroke-width: 0.8"/>
      </defs>
      <g>
       <use xlink:href="#m73ed473437" x="30.58" y="360.447716" style="stroke: #000000; stroke-width: 0.8"/>
      </g>
     </g>
     <g id="text_6">
      <!-- 0 -->
      <g transform="translate(17.2175 364.246934) scale(0.1 -0.1)">
       <use xlink:href="#DejaVuSans-30"/>
      </g>
     </g>
    </g>
    <g id="ytick_2">
     <g id="line2d_13">
      <path d="M 30.58 311.190272 
L 709.2 311.190272 
" clip-path="url(#paf3af6357c)" style="fill: none; stroke-dasharray: 1.85,0.8; stroke-dashoffset: 0; stroke: #b0b0b0; stroke-width: 0.5"/>
     </g>
     <g id="line2d_14">
      <g>
       <use xlink:href="#m73ed473437" x="30.58" y="311.190272" style="stroke: #000000; stroke-width: 0.8"/>
      </g>
     </g>
     <g id="text_7">
      <!-- 2 -->
      <g transform="translate(17.2175 314.98949) scale(0.1 -0.1)">
       <use xlink:href="#DejaVuSans-32"/>
      </g>
     </g>
    </g>
    <g id="ytick_3">
     <g id="line2d_15">
      <path d="M 30.58 261.932828 
L 709.2 261.932828 
" clip-path="url(#paf3af6357c)" style="fill: none; stroke-dasharray: 1.85,0.8; stroke-dashoffset: 0; stroke: #b0b0b0; stroke-width: 0.5"/>
     </g>
     <g id="line2d_16">
      <g>
       <use xlink:href="#m73ed473437" x="30.58" y="261.932828" style="stroke: #000000; stroke-width: 0.8"/>
      </g>
     </g>
     <g id="text_8">
      <!-- 4 -->
      <g transform="translate(17.2175 265.732047) scale(0.1 -0.1)">
       <use xlink:href="#DejaVuSans-34"/>
      </g>
     </g>
    </g>
    <g id="ytick_4">
     <g id="line2d_17">
      <path d="M 30.58 212.675384 
L 709.2 212.675384 
" clip-path="url(#paf3af6357c)" style="fill: none; stroke-dasharray: 1.85,0.8; stroke-dashoffset: 0; stroke: #b0b0b0; stroke-width: 0.5"/>
     </g>
     <g id="line2d_18">
      <g>
       <use xlink:href="#m73ed473437" x="30.58" y="212.675384" style="stroke: #000000; stroke-width: 0.8"/>
      </g>
     </g>
     <g id="text_9">
      <!-- 6 -->
      <g transform="translate(17.2175 216.474603) scale(0.1 -0.1)">
       <use xlink:href="#DejaVuSans-36"/>
      </g>
     </g>
    </g>
    <g id="ytick_5">
     <g id="line2d_19">
      <path d="M 30.58 163.41794 
L 709.2 163.41794 
" clip-path="url(#paf3af6357c)" style="fill: none; stroke-dasharray: 1.85,0.8; stroke-dashoffset: 0; stroke: #b0b0b0; stroke-width: 0.5"/>
     </g>
     <g id="line2d_20">
      <g>
       <use xlink:href="#m73ed473437" x="30.58" y="163.41794" style="stroke: #000000; stroke-width: 0.8"/>
      </g>
     </g>
     <g id="text_10">
      <!-- 8 -->
      <g transform="translate(17.2175 167.217159) scale(0.1 -0.1)">
       <use xlink:href="#DejaVuSans-38"/>
      </g>
     </g>
    </g>
    <g id="ytick_6">
     <g id="line2d_21">
      <path d="M 30.58 114.160496 
L 709.2 114.160496 
" clip-path="url(#paf3af6357c)" style="fill: none; stroke-dasharray: 1.85,0.8; stroke-dashoffset: 0; stroke: #b0b0b0; stroke-width: 0.5"/>
     </g>
     <g id="line2d_22">
      <g>
       <use xlink:href="#m73ed473437" x="30.58" y="114.160496" style="stroke: #000000; stroke-width: 0.8"/>
      </g>
     </g>
     <g id="text_11">
      <!-- 10 -->
      <g transform="translate(10.855 117.959715) scale(0.1 -0.1)">
       <use xlink:href="#DejaVuSans-31"/>
       <use xlink:href="#DejaVuSans-30" x="63.623047"/>
      </g>
     </g>
    </g>
    <g id="ytick_7">
     <g id="line2d_23">
      <path d="M 30.58 64.903052 
L 709.2 64.903052 
" clip-path="url(#paf3af6357c)" style="fill: none; stroke-dasharray: 1.85,0.8; stroke-dashoffset: 0; stroke: #b0b0b0; stroke-width: 0.5"/>
     </g>
     <g id="line2d_24">
      <g>
       <use xlink:href="#m73ed473437" x="30.58" y="64.903052" style="stroke: #000000; stroke-width: 0.8"/>
      </g>
     </g>
     <g id="text_12">
      <!-- 12 -->
      <g transform="translate(10.855 68.702271) scale(0.1 -0.1)">
       <use xlink:href="#DejaVuSans-31"/>
       <use xlink:href="#DejaVuSans-32" x="63.623047"/>
      </g>
     </g>
    </g>
   </g>
   <g id="line2d_25">
    <path d="M 61.426364 360.447716 
L 61.67358 325.13872 
L 61.714782 325.342085 
L 61.755985 325.544278 
L 61.879593 310.367966 
L 61.961998 310.943181 
L 62.003201 311.228306 
L 62.168011 288.837598 
L 62.209214 288.118226 
L 62.580038 253.285485 
L 62.786051 237.846406 
L 62.868456 238.120951 
L 63.280483 225.15901 
L 63.404091 215.678779 
L 63.445293 215.945909 
L 63.527699 210.259438 
L 63.568901 211.124459 
L 63.939725 217.049957 
L 64.022131 210.767855 
L 64.145739 202.618317 
L 64.186941 203.527348 
L 64.310549 205.654342 
L 64.434157 203.250923 
L 64.64017 207.726011 
L 64.681373 205.761851 
L 64.763778 206.403981 
L 64.804981 207.291207 
L 64.928589 198.621518 
L 64.969792 198.984533 
L 65.093399 185.98984 
L 65.134602 186.994644 
L 65.381818 175.553446 
L 65.423021 176.618358 
L 65.505426 178.729819 
L 65.629034 172.27512 
L 65.999858 180.166549 
L 66.082263 179.41087 
L 66.164668 179.222342 
L 66.247074 181.303893 
L 66.288276 180.060675 
L 66.329479 181.099628 
L 66.370682 181.56507 
L 66.453087 179.096002 
L 66.49429 180.140511 
L 66.576695 179.949843 
L 66.741505 184.07242 
L 66.782708 182.248154 
L 66.823911 182.707276 
L 66.947519 185.760751 
L 67.029924 185.514615 
L 67.071127 184.824101 
L 67.112329 185.835618 
L 67.153532 180.022466 
L 67.235937 180.964607 
L 67.483153 173.105783 
L 67.853977 181.472205 
L 67.89518 180.803337 
L 67.936382 181.838013 
L 67.977585 181.734421 
L 68.101193 184.242129 
L 68.266003 188.26667 
L 68.307206 186.98514 
L 68.348409 186.846987 
L 68.554422 181.701831 
L 68.636827 183.185987 
L 68.67803 182.503273 
L 68.801638 175.422413 
L 68.842841 176.488081 
L 68.925246 176.911261 
L 68.966449 175.702027 
L 70.243731 205.99049 
L 71.562215 232.057017 
L 72.674687 250.097615 
L 72.921903 253.856545 
L 72.963106 252.204809 
L 73.004308 252.828242 
L 74.322793 270.990331 
L 75.641278 286.087347 
L 76.341723 293.042172 
L 76.424128 288.719674 
L 76.588939 281.957121 
L 76.712547 279.361985 
L 76.753749 279.829005 
L 76.91856 281.670339 
L 76.959763 280.423183 
L 77.000965 280.88409 
L 77.577802 286.527826 
L 77.70141 274.841673 
L 77.742613 275.334727 
L 77.825018 275.175209 
L 78.31945 280.885654 
L 79.308314 290.651745 
L 80.626798 302.43066 
L 81.945283 312.22174 
L 83.263768 320.360457 
L 84.252632 325.54973 
L 84.335037 321.979541 
L 84.458645 322.640401 
L 85.77713 329.020843 
L 86.395169 331.629147 
L 86.436372 330.660231 
L 86.518777 331.002369 
L 86.765993 332.005386 
L 86.848398 328.937842 
L 86.930804 329.299764 
L 88.249289 334.556358 
L 89.567773 338.925838 
L 89.773787 339.538524 
L 89.814989 339.09127 
L 89.897395 339.33657 
L 91.215879 342.899331 
L 92.575567 345.944848 
L 93.935254 348.461816 
L 95.336144 350.599018 
L 96.778237 352.401746 
L 98.302735 353.949998 
L 99.909638 355.260598 
L 101.598947 356.35441 
L 103.453066 357.291346 
L 105.513199 358.08311 
L 107.902952 358.756259 
L 110.704733 359.305686 
L 114.124552 359.740642 
L 118.533236 360.066609 
L 124.796039 360.28932 
L 124.960849 360.292938 
L 125.043255 357.465241 
L 125.12566 357.499498 
L 125.290471 357.566835 
L 125.372876 356.469312 
L 125.455281 356.515007 
L 125.496484 356.537658 
L 125.537686 355.994325 
L 125.620092 356.045477 
L 127.433008 357.033461 
L 129.451938 357.875097 
L 129.822762 358.005421 
L 129.863965 357.452931 
L 129.94637 357.487329 
L 130.069978 357.538187 
L 130.111181 356.421686 
L 130.193586 356.467929 
L 130.317194 356.536299 
L 130.440802 353.225444 
L 130.482004 353.267041 
L 130.523207 353.308399 
L 130.770423 336.240563 
L 130.811626 332.98431 
L 130.894031 333.299754 
L 130.976436 332.479673 
L 131.017639 332.640757 
L 131.058841 332.800913 
L 131.100044 332.393631 
L 131.141247 332.55521 
L 131.882894 335.309582 
L 132.006502 327.861644 
L 132.047705 328.049326 
L 132.088908 328.235927 
L 132.212516 324.846858 
L 132.253718 325.051903 
L 132.294921 325.255768 
L 132.336124 324.324546 
L 132.418529 324.739456 
L 132.500934 325.149601 
L 132.542137 324.216709 
L 132.624542 324.632857 
L 132.789353 325.45087 
L 132.995366 311.307186 
L 133.036569 311.590214 
L 133.407393 314.065232 
L 133.572203 307.833668 
L 133.654608 307.870692 
L 134.107838 311.107439 
L 134.14904 310.825024 
L 134.190243 310.542305 
L 134.313851 297.311177 
L 134.396256 298.036362 
L 134.437459 297.258621 
L 134.478661 297.622564 
L 134.808283 299.908946 
L 134.890688 293.81775 
L 134.931891 294.201511 
L 135.179106 296.4581 
L 135.302714 294.182445 
L 135.343917 294.564105 
L 135.38512 293.808205 
L 135.426322 294.19202 
L 136.332781 301.58966 
L 136.992023 306.785502 
L 137.033226 305.960147 
L 137.074428 306.273972 
L 138.392913 315.416447 
L 139.711398 323.016019 
L 141.029883 329.333071 
L 141.071085 328.944603 
L 141.112288 329.126048 
L 141.977544 332.704 
L 142.018746 332.296958 
L 142.059949 332.459095 
L 143.378434 337.182513 
L 144.696919 341.108798 
L 146.056606 344.465061 
L 147.416293 347.238845 
L 148.817183 349.594115 
L 150.259276 351.580783 
L 151.742572 353.245528 
L 153.308272 354.664914 
L 154.956378 355.857903 
L 156.645687 356.825761 
L 156.68689 354.583296 
L 156.769295 354.650655 
L 158.417401 355.846585 
L 160.189115 356.858534 
L 162.166842 357.727624 
L 164.391785 358.456492 
L 166.987552 359.063897 
L 170.077751 359.55042 
L 173.9508 359.926366 
L 179.183536 360.197371 
L 187.17685 360.366081 
L 188.41293 360.379069 
L 188.454132 358.672649 
L 188.495335 351.877124 
L 188.57774 351.975565 
L 188.618943 352.024361 
L 188.783754 346.034998 
L 188.907362 346.2826 
L 189.072172 346.606132 
L 189.113375 344.411009 
L 189.19578 344.595206 
L 189.401793 345.046496 
L 189.442996 342.865694 
L 189.525401 343.067641 
L 189.607807 343.267268 
L 189.649009 337.120988 
L 189.731415 337.388918 
L 191.049899 341.280369 
L 192.409587 344.606856 
L 193.769274 347.356032 
L 195.170164 349.690406 
L 196.612257 351.659448 
L 198.095552 353.309425 
L 199.661253 354.716218 
L 201.309359 355.898623 
L 202.504236 356.60024 
L 202.545439 352.647719 
L 202.627844 352.73731 
L 204.152342 354.220991 
L 205.759245 355.476932 
L 207.489757 356.547717 
L 209.385078 357.457727 
L 211.527616 358.233483 
L 212.68129 358.564141 
L 212.763696 354.625958 
L 212.804898 354.659489 
L 213.052114 354.856657 
L 213.093317 353.754738 
L 213.175722 353.831613 
L 213.216925 353.869719 
L 213.258127 352.207229 
L 213.340533 352.301879 
L 213.381735 352.348795 
L 213.422938 347.859689 
L 213.505343 348.004275 
L 214.040978 348.904444 
L 214.08218 348.402997 
L 214.164586 348.541343 
L 214.329396 348.813285 
L 214.370599 344.902745 
L 214.453004 345.081294 
L 214.494207 345.169798 
L 214.53541 341.292407 
L 214.617815 341.512424 
L 214.659018 341.621484 
L 214.741423 333.928793 
L 214.823828 334.233389 
L 214.865031 333.815638 
L 215.071044 310.321064 
L 215.153449 310.330098 
L 215.235855 301.844044 
L 215.359463 302.85082 
L 215.483071 302.145497 
L 215.441868 302.948158 
L 215.524273 302.481294 
L 216.842758 312.263829 
L 217.666811 317.520753 
L 217.708014 317.201267 
L 217.749216 317.450348 
L 217.790419 317.697995 
L 217.831622 316.240356 
L 217.914027 316.74812 
L 219.232512 324.122956 
L 219.397322 324.952615 
L 219.603336 319.816329 
L 219.809349 320.973026 
L 219.850551 320.064863 
L 219.932957 320.5287 
L 219.974159 320.758616 
L 220.097767 319.751682 
L 220.592199 322.476974 
L 220.633402 319.858025 
L 220.798212 299.439539 
L 220.839415 297.527229 
L 220.92182 298.249932 
L 221.045428 299.318453 
L 221.086631 297.970576 
L 221.169036 298.688187 
L 221.375049 299.886248 
L 221.498657 295.295542 
L 221.53986 295.670791 
L 221.581063 296.043879 
L 221.622265 295.277275 
L 221.745873 289.639242 
L 221.787076 290.047068 
L 221.910684 287.87542 
L 221.951887 288.293405 
L 221.993089 285.875159 
L 222.075494 286.731698 
L 222.569926 291.668239 
L 222.611129 290.931748 
L 222.652332 291.33213 
L 222.693534 291.730207 
L 222.981953 269.914051 
L 223.146763 270.853559 
L 223.187966 271.369584 
L 223.311574 264.450351 
L 223.352777 265.003255 
L 223.435182 264.967539 
L 223.476385 262.119135 
L 223.55879 263.248535 
L 223.599993 263.808361 
L 223.641195 259.825536 
L 223.7236 260.98128 
L 224.135627 266.563902 
L 224.17683 266.535611 
L 224.34164 260.833202 
L 224.382843 259.706297 
L 224.465248 260.298457 
L 224.588856 262.018961 
L 224.630059 259.751537 
L 224.712464 260.908132 
L 225.330504 268.054155 
L 225.412909 264.59478 
L 225.454112 265.146852 
L 225.495314 265.695745 
L 225.618922 257.173758 
L 225.660125 257.768573 
L 226.030949 262.40393 
L 226.236962 257.328588 
L 226.278165 256.78676 
L 226.319367 257.383803 
L 227.061015 266.507618 
L 227.802663 275.784159 
L 227.843865 274.007162 
L 227.926271 275.000016 
L 228.791526 284.760919 
L 228.873932 279.9726 
L 228.956337 280.896935 
L 229.038742 280.675478 
L 229.409566 284.716571 
L 230.728051 297.497118 
L 232.046536 308.120793 
L 233.36502 316.951595 
L 234.683505 324.292092 
L 236.00199 330.393791 
L 237.320475 335.465754 
L 238.63896 339.681763 
L 239.957444 343.186269 
L 241.317132 346.181987 
L 242.676819 348.6578 
L 244.077709 350.760056 
L 245.519802 352.533307 
L 247.0443 354.056244 
L 248.651203 355.345414 
L 250.381715 356.444531 
L 252.277037 357.378617 
L 254.378372 358.161732 
L 256.809328 358.821917 
L 258.539839 359.17214 
L 258.581042 358.612776 
L 258.663447 358.633853 
L 261.382822 359.208811 
L 264.679034 359.667254 
L 265.255871 359.727884 
L 265.297074 359.164039 
L 265.379479 359.178783 
L 268.634489 359.643708 
L 269.499744 359.735551 
L 269.540947 358.033003 
L 269.623352 358.060739 
L 269.705757 358.088155 
L 269.74696 356.969536 
L 269.829365 357.009486 
L 271.353863 357.67109 
L 271.395066 357.118128 
L 271.436269 352.6069 
L 271.518674 352.696959 
L 271.642282 352.830112 
L 271.683485 352.306898 
L 271.76589 352.400403 
L 272.013106 352.674524 
L 272.095511 349.376673 
L 272.177916 349.503834 
L 273.620009 351.507027 
L 275.103305 353.18562 
L 276.669005 354.616813 
L 276.751411 354.683787 
L 276.792613 353.581463 
L 276.875018 353.660329 
L 278.440719 354.997968 
L 280.130028 356.147161 
L 281.942944 357.112324 
L 283.961874 357.93452 
L 286.269223 358.62908 
L 288.947395 359.198355 
L 292.202404 359.656109 
L 296.363872 360.006 
L 302.132243 360.250954 
L 311.361636 360.393762 
L 315.193483 360.416186 
L 315.399496 346.916345 
L 315.523104 347.148806 
L 315.976333 347.967513 
L 316.017536 346.905545 
L 316.099941 347.06109 
L 316.182346 347.214849 
L 316.264752 343.969278 
L 316.305954 344.064187 
L 316.470765 327.648358 
L 316.511967 326.699358 
L 316.676778 320.741473 
L 317.047602 322.752907 
L 317.088805 319.56875 
L 317.17121 320.038285 
L 317.500831 321.86311 
L 317.542034 321.516319 
L 317.748047 304.675265 
L 317.78925 304.99649 
L 317.830452 304.180829 
L 317.871655 304.504903 
L 318.283681 307.644732 
L 318.324884 307.380353 
L 318.407289 297.801105 
L 318.530897 298.31277 
L 318.654505 299.380211 
L 318.942924 291.800733 
L 318.984126 292.196111 
L 319.025329 292.021016 
L 319.148937 293.196546 
L 319.19014 292.450333 
L 319.231342 292.841969 
L 319.35495 294.003395 
L 319.437356 289.67507 
L 319.519761 289.921634 
L 320.838246 301.823764 
L 321.126664 304.146859 
L 321.167867 303.902179 
L 321.209069 299.698703 
L 321.291475 300.396465 
L 321.332677 299.60706 
L 321.37388 299.957476 
L 321.621096 302.017996 
L 321.703501 300.424559 
L 321.744704 300.770267 
L 321.827109 301.455721 
L 321.868312 300.090765 
L 321.950717 300.784023 
L 323.063189 309.399757 
L 323.351607 291.245174 
L 323.39281 291.643751 
L 323.434013 290.905193 
L 323.475215 291.305728 
L 323.804836 294.428069 
L 323.846039 289.694522 
L 323.928444 290.507191 
L 324.01085 291.310527 
L 324.093255 287.583416 
L 324.134458 288.003084 
L 324.17566 288.420334 
L 324.216863 287.134711 
L 324.299268 287.410762 
L 325.617753 299.736632 
L 326.936238 309.982362 
L 327.265859 312.261297 
L 327.307062 310.270501 
L 327.389467 310.846835 
L 328.707952 319.217584 
L 329.820423 325.17142 
L 329.861626 324.805668 
L 329.902829 325.010952 
L 331.221313 330.991334 
L 332.539798 335.962455 
L 333.858283 340.094639 
L 335.176768 343.529467 
L 336.536455 346.465624 
L 337.896143 348.892211 
L 338.967411 350.50361 
L 339.008614 349.428245 
L 339.091019 349.554814 
L 339.297033 349.864914 
L 339.461843 341.139176 
L 339.503046 340.118674 
L 339.544249 340.23576 
L 339.667857 324.806064 
L 339.750262 325.215443 
L 339.87387 325.820712 
L 339.915072 324.314593 
L 339.997478 324.729617 
L 340.079883 325.139874 
L 340.162288 323.281801 
L 340.244694 323.708688 
L 340.368302 324.339843 
L 340.450707 324.191403 
L 340.986341 296.308764 
L 341.027544 296.678177 
L 341.068747 294.213929 
L 341.151152 294.974689 
L 341.233557 295.726711 
L 341.315962 290.811098 
L 341.480773 291.268012 
L 341.686786 293.237424 
L 341.8928 274.429889 
L 341.934002 273.789827 
L 342.140015 262.22548 
L 342.428434 265.008987 
L 342.552042 260.462319 
L 342.593245 259.901441 
L 342.758055 255.446598 
L 342.881663 248.767872 
L 342.964068 250.050624 
L 343.005271 250.686465 
L 343.128879 230.626857 
L 343.170082 231.374571 
L 343.29369 222.888482 
L 343.376095 224.468485 
L 343.417298 224.684989 
L 343.4585 218.108155 
L 343.540906 219.743064 
L 343.705716 222.956763 
L 343.746919 220.904498 
L 343.788121 221.708208 
L 343.870527 222.732822 
L 343.911729 222.392078 
L 344.07654 207.010942 
L 344.117743 206.758994 
L 344.158945 207.644176 
L 344.282553 192.24452 
L 344.323756 193.2133 
L 344.447364 182.555683 
L 344.570972 184.486295 
L 344.612174 183.797627 
L 344.653377 184.815056 
L 344.69458 185.826626 
L 344.735782 185.695253 
L 344.776985 183.300356 
L 344.818188 184.320649 
L 344.85939 185.335067 
L 344.941796 182.251134 
L 344.982998 183.277471 
L 345.024201 183.16159 
L 345.147809 184.513971 
L 345.271417 174.029892 
L 345.31262 175.10358 
L 345.395025 165.356479 
L 345.47743 167.597293 
L 345.559835 169.812369 
L 345.642241 169.747007 
L 345.683443 167.444195 
L 345.724646 167.98736 
L 345.807051 170.197956 
L 345.889457 170.121825 
L 345.930659 169.518041 
L 346.383888 179.05748 
L 346.425091 175.555499 
L 346.507496 176.5487 
L 346.548699 175.903614 
L 346.589902 172.42657 
L 346.672307 174.586177 
L 346.754712 167.097811 
L 346.919523 168.681376 
L 346.960725 169.785869 
L 347.001928 168.0533 
L 347.249144 172.384633 
L 347.702373 183.962173 
L 347.743576 183.845977 
L 347.784778 183.161095 
L 347.825981 184.182191 
L 348.856047 206.879758 
L 350.174532 232.796209 
L 350.91618 244.355046 
L 351.08099 231.890529 
L 351.122193 231.494441 
L 351.163396 231.668282 
L 351.204598 231.842299 
L 351.657828 238.124433 
L 351.69903 238.262038 
L 352.069854 244.451705 
L 352.111057 243.417983 
L 353.429541 263.168167 
L 354.748026 279.585268 
L 356.066511 293.231785 
L 357.384996 304.575287 
L 358.53867 312.918875 
L 358.579873 312.626569 
L 358.621075 312.901999 
L 359.93956 320.925914 
L 361.258045 327.595696 
L 362.57653 333.139872 
L 363.895014 337.748401 
L 365.213499 341.579185 
L 366.573187 344.853813 
L 367.932874 347.56013 
L 369.333764 349.858111 
L 370.775857 351.796456 
L 372.259152 353.42071 
L 372.753584 353.891287 
L 372.794787 349.961895 
L 372.877192 350.082335 
L 374.319285 351.979638 
L 375.80258 353.569499 
L 376.503025 354.212809 
L 376.544228 350.845809 
L 376.626633 350.956096 
L 377.450686 351.991644 
L 377.533092 349.820007 
L 377.615497 349.942077 
L 377.656699 347.164629 
L 377.739105 347.317198 
L 377.780307 347.392824 
L 377.82151 346.901497 
L 377.903915 347.057089 
L 378.43955 348.025778 
L 378.480752 346.963117 
L 378.563158 347.118 
L 379.799237 349.238806 
L 379.84044 348.735935 
L 379.922845 348.870457 
L 379.964048 348.937137 
L 380.00525 346.169829 
L 380.087656 346.333824 
L 380.788101 347.653877 
L 381.035317 340.817482 
L 381.076519 340.930544 
L 381.117722 340.475088 
L 381.282533 333.659556 
L 381.818167 335.597435 
L 381.85937 334.605046 
L 381.941775 334.901875 
L 382.106586 335.485342 
L 382.147788 333.355844 
L 382.312599 319.945523 
L 382.353802 319.046408 
L 382.436207 319.521942 
L 382.477409 319.191444 
L 382.518612 319.429063 
L 382.559815 319.665313 
L 382.601017 318.767741 
L 382.683423 319.246477 
L 382.724625 319.483778 
L 382.765828 319.152662 
L 382.848233 314.540726 
L 382.889436 314.805131 
L 382.971841 314.199656 
L 383.013044 314.466025 
L 383.219057 315.775034 
L 383.26026 315.463507 
L 383.466273 294.365779 
L 383.507476 293.048344 
L 383.589881 293.822492 
L 383.713489 294.967073 
L 383.754692 294.777292 
L 383.795894 294.586832 
L 383.960705 296.091097 
L 384.001907 295.32902 
L 384.04311 295.704076 
L 384.413934 298.983852 
L 384.66115 285.939146 
L 384.867163 288.06026 
L 384.908366 283.359067 
L 384.990771 284.244505 
L 385.237987 286.840266 
L 385.402798 267.221782 
L 385.444 267.758724 
L 385.485203 267.156959 
L 385.526406 267.127394 
L 385.691216 268.698877 
L 385.732419 268.65856 
L 385.814824 268.583325 
L 385.897229 269.638478 
L 386.06204 264.970066 
L 386.103243 264.954181 
L 386.226851 266.594703 
L 386.268053 266.000851 
L 386.309256 265.976987 
L 386.391661 263.661225 
L 386.474066 260.81572 
L 386.515269 261.389558 
L 386.556472 260.823702 
L 386.638877 260.839351 
L 386.803688 261.983886 
L 386.84489 261.984814 
L 387.421727 269.633787 
L 387.545335 261.624322 
L 387.586538 261.05793 
L 387.627741 261.630373 
L 387.710146 262.197418 
L 387.792551 257.671059 
L 387.874957 257.71519 
L 388.575402 266.199558 
L 388.69901 267.253844 
L 388.781415 266.060465 
L 388.822617 266.604095 
L 388.905023 267.681981 
L 389.358252 246.473497 
L 389.440657 246.08454 
L 389.564265 248.049231 
L 389.605468 246.996305 
L 389.64667 247.649737 
L 390.141102 254.647627 
L 390.182305 254.122041 
L 390.429521 236.466314 
L 390.470723 236.611366 
L 390.594331 230.26471 
L 390.676737 231.191757 
L 390.717939 231.936217 
L 390.759142 228.137504 
L 390.841547 229.089359 
L 390.88275 229.845927 
L 390.923953 222.652528 
L 391.006358 223.668361 
L 391.047561 223.319345 
L 391.088763 223.540887 
L 391.212371 224.765365 
L 391.253574 223.277129 
L 391.294776 224.067173 
L 391.377182 225.064714 
L 391.418384 224.145316 
L 391.459587 224.93036 
L 391.583195 210.357143 
L 391.624398 211.221601 
L 391.6656 210.944517 
L 391.871614 215.200582 
L 391.912816 212.068695 
L 391.995222 213.772973 
L 392.036424 214.617758 
L 392.077627 209.218066 
L 392.160032 210.955087 
L 392.448451 215.751867 
L 392.489653 214.879677 
L 392.695667 196.489643 
L 392.778072 197.810087 
L 392.860477 199.67814 
L 392.90168 194.359983 
L 392.984085 196.267664 
L 393.025288 197.213271 
L 393.06649 194.186724 
L 393.148896 196.096395 
L 393.190098 196.474283 
L 393.231301 195.154113 
L 393.272504 196.106135 
L 393.68453 203.699349 
L 393.766935 203.812001 
L 393.808138 200.168065 
L 393.849341 198.259142 
L 393.890543 199.19328 
L 393.931746 200.122037 
L 393.972949 197.637122 
L 394.055354 198.373878 
L 394.261367 200.742241 
L 394.384975 197.275722 
L 394.426178 198.215523 
L 394.755799 203.893433 
L 394.879407 201.504857 
L 394.838204 204.001971 
L 394.92061 202.4203 
L 395.126623 206.919034 
L 395.167826 206.667379 
L 395.209028 205.282638 
L 395.250231 206.176323 
L 395.332636 207.948281 
L 395.373839 204.859116 
L 395.456244 206.646203 
L 395.827068 213.303989 
L 396.033081 204.581355 
L 396.3215 209.105125 
L 396.362702 208.276754 
L 396.403905 209.153195 
L 397.186755 224.878801 
L 397.227958 223.384796 
L 397.269161 224.17422 
L 397.8872 233.831852 
L 398.010808 231.489688 
L 398.052011 232.232431 
L 398.134416 233.136083 
L 398.175619 232.172021 
L 398.216822 232.910835 
L 398.258024 233.645393 
L 398.422835 223.067485 
L 398.50524 224.081733 
L 398.876064 230.989744 
L 398.917267 228.900228 
L 398.958469 229.657886 
L 399.082077 231.904777 
L 399.12328 230.940786 
L 399.164483 230.55321 
L 399.288091 232.784719 
L 399.329293 232.385668 
L 399.411698 228.762393 
L 399.494104 230.274928 
L 399.535306 231.024668 
L 399.576509 229.501817 
L 399.617712 230.256009 
L 399.947333 235.567935 
L 399.988536 234.01853 
L 400.070941 234.336387 
L 400.153346 234.65432 
L 400.359359 238.235414 
L 400.400562 236.67069 
L 400.482967 237.525816 
L 400.688981 239.905768 
L 400.812589 236.343034 
L 400.853791 237.057824 
L 401.719047 250.137095 
L 401.883857 245.352959 
L 401.92506 244.312568 
L 401.966263 244.981457 
L 402.584302 253.475595 
L 402.70791 253.621774 
L 402.831518 255.45698 
L 402.872721 247.561651 
L 402.955126 248.858258 
L 404.026395 263.890911 
L 404.809246 273.92706 
L 404.850448 272.726741 
L 404.891651 273.231977 
L 405.303677 277.012947 
L 405.34488 276.925167 
L 405.386083 277.406221 
L 405.427285 276.183607 
L 405.468488 276.668932 
L 406.292541 285.809305 
L 406.333744 285.672552 
L 406.416149 285.402374 
L 407.36381 294.174793 
L 408.270268 301.574394 
L 408.599889 304.233019 
L 408.847105 293.847288 
L 408.970713 294.991444 
L 409.629956 300.769761 
L 409.671158 299.981912 
L 409.712361 300.330169 
L 410.907238 309.602238 
L 410.94844 309.327515 
L 410.989643 309.621945 
L 412.308128 318.199409 
L 413.626613 325.329322 
L 414.945097 331.255976 
L 416.263582 336.182436 
L 417.582067 340.277495 
L 418.900552 343.681464 
L 420.260239 346.591242 
L 421.619927 348.996028 
L 423.020817 351.037975 
L 424.462909 352.760355 
L 425.987407 354.239602 
L 427.594311 355.491789 
L 429.324822 356.559374 
L 431.220144 357.466663 
L 433.362682 358.240101 
L 434.516356 358.56977 
L 434.557559 358.012816 
L 434.639964 358.040783 
L 436.988515 358.716007 
L 439.749092 359.271736 
L 441.232388 359.492524 
L 441.314793 355.546121 
L 441.397198 355.602421 
L 443.12771 356.646174 
L 445.064234 357.549996 
L 447.206772 358.301813 
L 449.678931 358.930333 
L 452.645522 359.446617 
L 454.746857 359.702058 
L 454.829262 355.757654 
L 454.870465 355.784666 
L 455.323694 356.071733 
L 455.364897 355.530294 
L 455.447302 355.586776 
L 455.612113 355.6978 
L 455.653315 355.156659 
L 455.73572 355.217432 
L 455.900531 355.336892 
L 456.147747 343.215684 
L 456.230152 343.413611 
L 456.271355 343.51172 
L 456.477368 337.798549 
L 456.600976 329.775178 
L 456.724584 330.302114 
L 456.765787 329.338184 
L 456.806989 323.841204 
L 456.889395 324.261666 
L 456.930597 323.903007 
L 457.136611 315.916177 
L 457.260219 305.434654 
L 457.301421 305.182496 
L 457.342624 305.5008 
L 457.58984 306.817164 
L 457.837056 299.152361 
L 458.537501 304.885233 
L 458.578703 304.636241 
L 458.619906 302.125292 
L 458.702311 302.795182 
L 459.567567 308.872704 
L 460.350417 314.233429 
L 460.39162 313.930642 
L 460.432823 314.19856 
L 460.515228 314.729777 
L 460.55643 311.586774 
L 460.638836 312.14799 
L 461.00966 314.594752 
L 461.133268 313.127711 
L 461.17447 313.400255 
L 462.328144 320.425985 
L 462.492955 315.171295 
L 463.1934 319.405937 
L 463.234603 319.075286 
L 463.399413 315.526065 
L 463.523021 316.297792 
L 463.564224 313.151543 
L 463.646629 313.694786 
L 463.729035 311.975063 
L 463.770237 312.254245 
L 464.676695 318.005371 
L 464.717898 315.976551 
L 464.800303 316.487346 
L 466.118788 323.90619 
L 467.437273 330.073015 
L 468.755758 335.199113 
L 470.074243 339.46012 
L 471.392727 343.002031 
L 472.752415 346.029724 
L 474.112102 348.531962 
L 475.512992 350.656656 
L 476.955085 352.448834 
L 477.325909 352.85404 
L 477.367112 352.33098 
L 477.449517 352.424209 
L 477.65553 352.652623 
L 477.696733 346.464268 
L 477.779138 346.624882 
L 477.985151 347.018391 
L 478.026354 341.424832 
L 478.108759 341.643328 
L 479.468447 344.906824 
L 480.828134 347.60394 
L 482.229024 349.89411 
L 483.671117 351.825866 
L 485.154412 353.444598 
L 486.720113 354.824752 
L 488.368219 355.984766 
L 489.521893 356.651231 
L 489.563096 353.830967 
L 489.645501 353.906967 
L 489.686704 353.944639 
L 489.769109 351.197097 
L 489.810312 351.250377 
L 491.293607 352.977155 
L 492.818105 354.414684 
L 494.342603 355.575595 
L 494.383806 354.465948 
L 494.466211 354.534654 
L 494.91944 354.898674 
L 495.001846 353.831033 
L 495.084251 353.907032 
L 495.496277 354.274132 
L 495.53748 350.906657 
L 495.619885 351.016246 
L 495.825899 351.284741 
L 495.867101 349.06927 
L 495.949507 349.199963 
L 497.267991 351.098157 
L 497.391599 348.433251 
L 497.55641 348.707662 
L 497.968436 349.366581 
L 498.009639 346.019005 
L 498.092044 346.184733 
L 498.133247 345.700639 
L 498.215652 345.870024 
L 498.586476 346.608499 
L 498.627679 344.983223 
L 498.710084 345.160847 
L 498.9573 345.681574 
L 499.039705 342.460172 
L 499.122111 342.666777 
L 499.245718 342.972243 
L 499.286921 342.50421 
L 499.369326 342.710309 
L 499.74015 343.608848 
L 499.781353 343.136896 
L 499.863758 343.335728 
L 501.223446 346.305508 
L 501.264648 346.386961 
L 501.305851 344.764432 
L 501.388256 344.944569 
L 502.418322 347.029176 
L 502.500728 339.259519 
L 502.665538 339.743458 
L 503.036362 340.792291 
L 503.077565 338.062672 
L 503.15997 338.319787 
L 503.571997 339.561732 
L 503.736807 336.676322 
L 503.901618 337.219262 
L 503.984023 336.355836 
L 504.066428 336.632555 
L 505.384913 340.651651 
L 506.703398 343.992477 
L 508.063085 346.848278 
L 509.463976 349.27319 
L 510.864866 351.265716 
L 512.265756 352.902955 
L 512.306958 352.379391 
L 512.389364 352.472063 
L 512.760188 352.876093 
L 512.80139 349.524301 
L 512.883795 349.649767 
L 513.872659 351.047556 
L 513.913862 350.532796 
L 513.996267 350.646679 
L 514.243483 350.980538 
L 514.284686 350.466041 
L 514.325888 350.523531 
L 514.367091 347.180185 
L 514.449496 347.332576 
L 514.614307 347.632126 
L 514.655509 347.138742 
L 514.737915 347.291608 
L 514.943928 347.666137 
L 515.108739 340.662678 
L 515.191144 339.195181 
L 515.232347 339.317586 
L 515.314752 339.560286 
L 515.479562 328.823699 
L 515.561968 329.186932 
L 515.60317 328.798617 
L 515.809184 319.041384 
L 515.891589 319.516976 
L 515.932792 312.377547 
L 516.015197 312.92968 
L 516.22121 314.282426 
L 516.262413 312.84907 
L 516.344818 313.395787 
L 516.386021 313.666786 
L 516.427223 313.369267 
L 516.468426 313.640418 
L 516.509629 312.775786 
L 516.592034 313.323345 
L 516.715642 314.132913 
L 516.756845 312.701312 
L 516.83925 313.249726 
L 517.374884 316.106273 
L 517.45729 313.787408 
L 517.498492 314.056152 
L 518.034127 316.855249 
L 518.157735 308.571176 
L 518.281343 309.462384 
L 518.363748 310.048 
L 518.569761 304.764117 
L 518.610964 304.518716 
L 518.652166 304.840844 
L 518.734572 305.479543 
L 518.775774 304.092179 
L 518.85818 304.739478 
L 519.187801 306.69834 
L 519.270206 303.910992 
L 519.435017 291.680026 
L 519.476219 292.076099 
L 519.558625 292.861414 
L 519.929449 271.978956 
L 520.011854 272.995106 
L 520.135462 260.393961 
L 520.25907 262.112825 
L 520.382678 258.151082 
L 520.465083 259.32606 
L 520.506286 259.908477 
L 520.629894 249.813601 
L 520.671096 250.450807 
L 520.753502 237.022782 
L 520.794704 237.733657 
L 520.835907 237.871497 
L 521.124325 207.754478 
L 521.165528 208.633926 
L 521.206731 207.23917 
L 521.247933 207.555119 
L 521.289136 206.734956 
L 521.330339 207.620277 
L 521.371541 206.797071 
L 521.495149 209.436697 
L 521.577555 203.27078 
L 521.618757 204.176053 
L 521.65996 205.076111 
L 521.701163 199.728696 
L 521.783568 201.011388 
L 521.865973 202.842671 
L 521.989581 194.830051 
L 522.030784 195.217173 
L 522.401608 169.729037 
L 522.525216 170.168826 
L 522.648823 172.869149 
L 522.854837 156.816837 
L 523.266863 167.121506 
L 523.349269 160.848777 
L 523.431674 163.141366 
L 523.514079 161.438363 
L 523.596484 155.807435 
L 523.67889 158.157929 
L 523.720092 157.616581 
L 523.761295 154.818457 
L 523.802498 156.002795 
L 524.420537 172.405618 
L 524.46174 171.783443 
L 524.832564 160.855596 
L 524.873767 161.439307 
L 524.914969 162.585511 
L 524.956172 162.018668 
L 525.162185 145.788023 
L 525.24459 147.691078 
L 525.326996 148.998873 
L 525.533009 125.20306 
L 525.574212 126.55797 
L 525.615414 127.905076 
L 525.69782 117.023648 
L 525.739022 118.425668 
L 525.821427 113.849107 
L 525.986238 108.258732 
L 526.027441 108.010484 
L 526.151049 99.95541 
L 526.192251 101.455735 
L 526.274657 104.430512 
L 526.398265 96.431186 
L 526.439467 97.951809 
L 526.48067 92.65489 
L 526.563075 95.730753 
L 526.604278 97.255411 
L 526.686683 86.71074 
L 526.727886 88.287348 
L 526.851494 92.962901 
L 526.892696 88.275512 
L 526.975102 89.696345 
L 527.593141 108.92545 
L 527.757952 114.101335 
L 527.799155 112.679526 
L 527.840357 105.59816 
L 527.922763 107.388835 
L 528.087573 110.905021 
L 528.128776 104.971654 
L 528.211181 107.906047 
L 528.334789 111.682983 
L 528.417194 111.156349 
L 528.540802 86.723351 
L 528.582005 88.299888 
L 528.66441 90.300006 
L 528.911626 95.586242 
L 528.952829 94.839977 
L 529.117639 77.348778 
L 529.406058 86.330941 
L 529.447261 83.370125 
L 529.488463 84.965975 
L 529.570869 88.130152 
L 529.612071 86.86574 
L 529.653274 85.611229 
L 529.694477 87.19417 
L 529.859287 93.43529 
L 529.90049 89.28782 
L 529.941692 90.849586 
L 529.982895 92.402357 
L 530.024098 91.681515 
L 530.0653 90.955529 
L 530.147706 94.05091 
L 530.188908 91.622028 
L 530.230111 92.602028 
L 530.271314 91.874001 
L 530.312516 83.777139 
L 530.394922 86.392387 
L 530.559732 92.65182 
L 530.600935 90.216483 
L 530.642137 89.507445 
L 530.68334 91.067946 
L 530.724543 90.345113 
L 530.971759 71.573473 
L 531.095367 54.477563 
L 531.260177 56.367008 
L 531.507393 65.057305 
L 531.548596 62.210772 
L 531.589798 62.226531 
L 531.754609 67.900829 
L 531.795812 66.743209 
L 531.837014 66.170747 
L 531.878217 67.296876 
L 531.91942 65.012816 
L 531.960622 66.714396 
L 532.043028 70.088211 
L 532.08423 69.488944 
L 532.166636 61.507804 
L 532.249041 63.235561 
L 532.413851 46.463952 
L 532.455054 44.861212 
L 532.496257 45.547321 
L 532.825878 55.290159 
L 532.867081 55.909761 
L 532.949486 47.520799 
L 532.990689 41.392748 
L 533.073094 45.057407 
L 534.309173 94.686807 
L 535.174429 122.813525 
L 535.215632 121.912664 
L 535.256834 123.286525 
L 536.534116 162.168341 
L 537.028548 174.3161 
L 537.069751 169.71895 
L 537.152156 171.34084 
L 537.275764 174.029789 
L 537.852601 188.511443 
L 537.893804 184.958954 
L 537.976209 186.974615 
L 539.129883 212.879845 
L 539.171086 212.596584 
L 539.335897 215.973508 
L 539.377099 214.533957 
L 539.418302 215.374358 
L 540.736787 239.857243 
L 541.10761 245.966101 
L 541.148813 244.92577 
L 541.190016 245.591128 
L 542.508501 264.974567 
L 543.826985 281.086817 
L 545.14547 294.479929 
L 546.463955 305.612791 
L 547.78244 314.866849 
L 549.100925 322.559172 
L 550.419409 328.953322 
L 551.737894 334.268382 
L 553.056379 338.686461 
L 553.509608 340.026128 
L 553.674419 334.877561 
L 553.798027 335.316841 
L 553.880432 328.266453 
L 553.962837 328.636086 
L 554.292458 330.072649 
L 554.333661 329.680453 
L 554.374864 329.85766 
L 555.487335 334.275016 
L 555.528538 333.856776 
L 555.569741 334.009929 
L 555.899362 335.203817 
L 556.064172 332.957584 
L 556.146578 333.273335 
L 557.465062 337.85934 
L 558.659939 341.343198 
L 558.82475 338.962125 
L 558.948358 339.331235 
L 559.277979 340.284821 
L 559.319182 337.558266 
L 559.401587 337.821174 
L 560.720072 341.639676 
L 560.884882 342.069253 
L 560.967288 339.453798 
L 561.00849 339.574714 
L 561.914949 342.065576 
L 562.079759 340.799926 
L 562.120962 340.913089 
L 562.203367 341.137463 
L 562.285772 335.709703 
L 562.368178 335.993843 
L 562.40938 336.134687 
L 562.574191 335.5639 
L 562.739002 336.132247 
L 562.903812 331.044972 
L 563.02742 331.550093 
L 563.068623 331.147791 
L 563.109825 331.316546 
L 563.357041 332.308861 
L 563.398244 331.903687 
L 563.439447 330.366972 
L 563.521852 330.712479 
L 563.563055 330.317466 
L 563.604257 324.248717 
L 563.686662 324.664498 
L 563.975081 326.082482 
L 564.016284 325.711595 
L 564.139892 323.495635 
L 564.181094 323.708463 
L 564.716729 326.366213 
L 564.757931 325.994563 
L 564.799134 326.192999 
L 564.840337 326.390291 
L 564.881539 326.020519 
L 564.922742 326.218805 
L 565.005147 326.611958 
L 565.087553 324.173371 
L 565.169958 324.590018 
L 565.499579 326.209294 
L 565.540782 325.268936 
L 565.623187 325.672999 
L 566.941672 331.541653 
L 568.260157 336.419901 
L 569.578641 340.474886 
L 570.773518 343.555342 
L 570.855924 340.363525 
L 570.897126 340.479201 
L 570.938329 340.594211 
L 570.979531 340.142309 
L 571.061937 340.375537 
L 571.597571 341.827576 
L 571.679977 340.907434 
L 571.721179 337.623752 
L 571.803584 337.885908 
L 571.844787 338.015854 
L 571.968395 333.331683 
L 572.009598 333.48786 
L 572.0508 333.076908 
L 572.092003 333.234552 
L 572.174408 333.547122 
L 572.298016 322.168242 
L 572.339219 322.388715 
L 572.710043 323.763631 
L 572.792448 323.618807 
L 572.998461 324.667254 
L 573.987325 329.299015 
L 574.110933 327.022284 
L 574.152135 327.2148 
L 575.30581 332.177566 
L 575.347012 331.771592 
L 575.388215 331.936754 
L 576.7067 336.748324 
L 578.025185 340.747883 
L 578.931643 343.098745 
L 578.972845 342.63197 
L 579.055251 342.836601 
L 579.50848 343.920776 
L 579.549683 343.447753 
L 579.632088 343.643014 
L 580.991775 346.559465 
L 582.351463 348.969766 
L 582.433868 349.101602 
L 582.475071 348.032419 
L 582.557476 348.175021 
L 583.958366 350.363361 
L 584.741216 351.411532 
L 584.782419 350.894671 
L 584.864824 351.004397 
L 586.306917 352.732924 
L 587.831415 354.217449 
L 589.438318 355.474104 
L 590.138764 355.939279 
L 590.179966 355.398263 
L 590.262371 355.456261 
L 590.674398 355.73641 
L 590.715601 355.196812 
L 590.798006 355.257124 
L 592.487315 356.351669 
L 594.341434 357.289232 
L 596.401566 358.081526 
L 598.79132 358.755126 
L 599.986197 359.016178 
L 600.027399 357.890579 
L 600.109805 357.91995 
L 601.757911 358.441427 
L 601.799113 355.607881 
L 601.881519 355.663471 
L 603.653233 356.715693 
L 603.776841 356.779807 
L 603.818043 353.967235 
L 603.900449 354.04167 
L 604.188867 354.295522 
L 604.23007 353.762127 
L 604.312475 353.838918 
L 604.600894 354.100805 
L 604.642096 320.117672 
L 604.724501 320.580902 
L 605.01292 321.60051 
L 605.260136 310.626312 
L 605.507352 312.323412 
L 605.548554 304.636293 
L 605.63096 304.708441 
L 605.754568 302.289458 
L 605.79577 302.624425 
L 606.249 306.184143 
L 606.290202 296.826091 
L 606.372607 297.556847 
L 606.41381 297.919072 
L 606.537418 264.166873 
L 606.578621 264.72141 
L 606.784634 255.632733 
L 606.825837 255.104648 
L 606.867039 255.71138 
L 606.908242 256.314617 
L 607.073053 237.260814 
L 607.155458 238.112563 
L 607.19666 237.67992 
L 607.237863 238.38701 
L 607.279066 238.521225 
L 607.320268 238.091886 
L 607.361471 238.796604 
L 607.402674 238.931442 
L 607.64989 243.070732 
L 607.691092 235.223385 
L 607.773498 236.661709 
L 607.897106 237.657221 
L 607.938308 234.954128 
L 608.020713 236.395545 
L 608.103119 213.499552 
L 608.144321 213.779838 
L 608.185524 214.05616 
L 608.597551 166.336326 
L 608.638753 166.322371 
L 608.885969 160.090076 
L 609.21559 168.583054 
L 609.380401 134.913874 
L 609.586414 120.60453 
L 609.668819 120.529752 
L 609.710022 121.911577 
L 609.792427 124.085624 
L 609.83363 123.744652 
L 609.998441 118.430154 
L 610.039643 119.824073 
L 610.286859 126.895259 
L 610.369264 123.91916 
L 610.410467 125.281464 
L 610.575278 130.090797 
L 610.61648 129.141625 
L 610.657683 125.94251 
L 610.740088 126.940407 
L 610.822494 129.053738 
L 610.904899 115.900773 
L 610.987304 118.709635 
L 611.316925 127.938923 
L 611.358128 126.438505 
L 611.399331 127.786299 
L 611.646547 135.711601 
L 611.687749 127.345383 
L 611.770155 130.022791 
L 611.811357 131.349941 
L 611.893763 114.768673 
L 611.934965 116.18368 
L 612.01737 111.628793 
L 612.058573 112.493143 
L 612.305789 117.046869 
L 612.388194 113.053684 
L 612.429397 114.478569 
L 612.4706 114.758141 
L 612.511802 116.173208 
L 612.553005 115.873817 
L 612.594208 112.75059 
L 612.63541 114.17722 
L 612.800221 118.685416 
L 612.923829 114.956654 
L 613.088639 118.872258 
L 613.25345 112.015396 
L 613.335855 114.868885 
L 613.459463 108.956834 
L 613.500666 108.700907 
L 613.541869 106.188085 
L 613.583071 107.652513 
L 613.624274 109.108506 
L 613.706679 101.818909 
L 613.789084 104.789514 
L 614.324719 120.016842 
L 615.189974 145.424957 
L 615.684406 159.824388 
L 615.725609 148.530729 
L 615.808014 150.964804 
L 616.096433 155.372639 
L 616.178838 144.165637 
L 616.261243 145.523614 
L 616.426054 150.432487 
L 616.549662 143.906012 
L 616.590865 145.153201 
L 616.632067 146.393206 
L 616.67327 137.972216 
L 616.755675 139.96465 
L 616.83808 136.852534 
L 616.879283 138.140348 
L 616.920486 138.282765 
L 616.961688 136.730487 
L 617.002891 138.019003 
L 617.250107 144.482675 
L 617.29131 141.758051 
L 617.332512 143.017611 
L 617.785741 156.403044 
L 617.826944 151.897738 
L 617.909349 154.293138 
L 618.07416 159.001715 
L 618.115363 152.796124 
L 618.197768 154.616225 
L 618.650997 166.21273 
L 618.6922 162.230658 
L 618.774605 162.802587 
L 618.815808 162.242186 
L 619.433847 178.153908 
L 619.557455 171.678864 
L 619.681063 172.091876 
L 619.845874 175.831172 
L 619.887077 174.059414 
L 619.969482 175.068017 
L 620.010685 173.862035 
L 620.051887 174.936689 
L 620.2579 179.650362 
L 620.422711 175.354114 
L 620.669927 179.410601 
L 620.834737 147.08294 
L 620.87594 148.31183 
L 620.917143 148.966671 
L 620.958345 147.909786 
L 621.081953 122.938987 
L 621.246764 127.795262 
L 621.329169 115.769796 
L 621.370372 117.179037 
L 621.411575 116.874354 
L 621.49398 119.672033 
L 621.576385 104.9739 
L 621.617588 106.445321 
L 621.782398 111.114467 
L 621.823601 107.452975 
L 621.864804 108.910118 
L 621.906006 110.358868 
L 621.947209 109.533944 
L 622.070817 102.583162 
L 622.194425 107.01312 
L 622.235628 103.934342 
L 622.318033 105.749429 
L 622.359236 105.509716 
L 622.441641 93.746256 
L 622.524046 96.809584 
L 622.606451 94.744182 
L 622.647654 96.274521 
L 623.018478 106.928816 
L 623.142086 97.775093 
L 623.183289 99.287976 
L 623.348099 105.252873 
L 623.430504 104.793037 
L 623.471707 105.133934 
L 623.51291 106.604433 
L 623.554112 104.655674 
L 623.595315 103.86095 
L 624.007342 115.529676 
L 624.048544 114.676095 
L 624.089747 116.091636 
L 624.130949 116.365671 
L 624.748989 133.881316 
L 624.790192 131.786151 
L 624.872597 132.707097 
L 625.943866 163.4362 
L 626.520703 177.124193 
L 626.561906 172.518633 
L 626.644311 174.110314 
L 626.685514 175.183539 
L 626.809122 166.552359 
L 627.015135 169.275644 
L 627.09754 151.060688 
L 627.221148 154.657832 
L 627.591972 161.767802 
L 627.633175 162.912114 
L 627.674377 158.944458 
L 627.756783 161.258921 
L 629.034065 193.915285 
L 630.35255 222.019648 
L 630.805779 230.541557 
L 630.846981 228.455244 
L 630.888184 229.215464 
L 631.794642 243.864819 
L 633.113127 263.539594 
L 634.225599 277.533609 
L 634.266801 277.443077 
L 635.585286 291.451115 
L 636.903771 303.095126 
L 638.222256 312.77407 
L 638.881498 316.982581 
L 638.922701 316.663891 
L 638.963903 316.916067 
L 639.37593 319.359311 
L 639.458335 319.267927 
L 639.499538 318.371197 
L 639.581943 318.854487 
L 640.241185 322.526234 
L 640.282388 313.099646 
L 640.364793 313.643485 
L 641.312454 319.466231 
L 641.353657 317.996198 
L 641.436062 318.483795 
L 642.424926 323.916001 
L 642.466129 322.994104 
L 642.548534 323.424295 
L 643.290182 327.080341 
L 643.372587 324.079632 
L 643.413789 324.289097 
L 643.454992 324.497356 
L 643.496195 322.999535 
L 643.5786 323.429664 
L 643.661005 323.287528 
L 643.743411 323.714349 
L 643.784613 323.357036 
L 643.825816 323.570663 
L 644.938288 328.895893 
L 645.020693 322.477997 
L 645.061895 322.696686 
L 645.473922 324.815488 
L 645.515125 324.453967 
L 645.556327 324.661276 
L 645.803543 325.880293 
L 645.844746 325.512261 
L 645.885948 325.713474 
L 645.968354 326.112431 
L 646.091962 325.009975 
L 646.256772 325.819374 
L 646.297975 325.452364 
L 646.339178 325.653922 
L 646.957217 328.541666 
L 647.245636 323.097579 
L 647.286839 323.3127 
L 647.946081 326.590887 
L 647.987284 325.654117 
L 648.069689 326.053755 
L 648.852539 329.628676 
L 648.934945 327.154018 
L 649.01735 327.536428 
L 649.058552 326.588919 
L 649.140958 326.97782 
L 649.223363 327.362255 
L 649.305768 324.348697 
L 649.346971 324.556612 
L 649.429376 324.402784 
L 649.552984 325.022015 
L 649.63539 322.595745 
L 649.717795 323.030512 
L 651.03628 329.345118 
L 651.077482 329.524256 
L 651.118685 329.13552 
L 651.159888 329.315865 
L 651.571914 331.063161 
L 651.613117 329.5345 
L 651.81913 310.269895 
L 651.860333 310.558898 
L 651.901535 308.011284 
L 651.983941 308.613568 
L 653.302425 317.361208 
L 653.549641 318.828892 
L 653.714452 315.267416 
L 653.796857 315.786356 
L 653.961668 316.806423 
L 654.250086 291.711912 
L 655.568571 303.311911 
L 656.887056 312.95427 
L 658.205541 320.969363 
L 659.524025 327.631813 
L 660.84251 333.169894 
L 661.089726 334.099077 
L 661.130929 328.019552 
L 661.213334 328.392021 
L 661.295739 328.760212 
L 661.336942 328.373953 
L 661.378145 328.558685 
L 661.419347 328.742352 
L 661.501753 327.406408 
L 661.584158 327.78592 
L 661.748969 328.531916 
L 661.790171 325.306756 
L 661.872577 325.710385 
L 661.913779 325.342016 
L 661.954982 317.602479 
L 662.037387 318.094599 
L 662.07859 318.338535 
L 662.202198 311.757012 
L 662.2434 312.037449 
L 662.284603 310.044187 
L 662.367008 310.623121 
L 662.449414 311.195406 
L 662.490616 309.774592 
L 662.573022 309.78777 
L 662.614224 299.308295 
L 662.69663 300.010541 
L 664.015114 310.210045 
L 664.09752 298.342812 
L 664.138722 298.70051 
L 664.385938 300.803847 
L 664.427141 300.010567 
L 664.468343 300.35866 
L 664.962775 303.818867 
L 665.003978 302.44555 
L 665.086383 302.543477 
L 665.457207 305.476783 
L 665.580815 303.603905 
L 665.786828 305.222138 
L 665.828031 300.447199 
L 665.910436 301.136364 
L 666.034044 302.155298 
L 666.198855 292.277367 
L 666.240057 288.691353 
L 666.322463 289.515546 
L 666.363665 288.786765 
L 666.610881 272.701715 
L 666.652084 273.207095 
L 666.775692 267.385207 
L 666.816894 267.921208 
L 666.858097 267.885398 
L 667.311326 273.58372 
L 667.352529 273.515438 
L 667.393732 272.312727 
L 667.434934 272.820348 
L 667.888163 278.214864 
L 668.052974 263.850497 
L 668.547406 270.319324 
L 668.712216 264.513842 
L 669.041838 268.846062 
L 669.08304 241.010103 
L 669.165445 242.381961 
L 669.206648 238.523499 
L 669.289053 239.361059 
L 669.659877 243.807869 
L 669.783485 237.37483 
L 669.824688 238.083678 
L 669.989498 234.692274 
L 670.030701 234.84796 
L 670.195512 224.754923 
L 670.236714 225.536456 
L 670.277917 226.313488 
L 670.566336 202.01542 
L 670.689944 204.737192 
L 671.431591 218.506298 
L 672.33805 234.876021 
L 672.379252 233.901372 
L 672.420455 234.630225 
L 672.461657 235.35488 
L 672.544063 227.745346 
L 672.667671 230.025093 
L 673.615332 246.2505 
L 673.656534 245.206091 
L 673.697737 245.869834 
L 673.780142 247.185874 
L 673.821345 241.032231 
L 673.90375 242.403835 
L 674.439385 250.943233 
L 674.480587 249.8757 
L 674.52179 250.512548 
L 675.13983 258.545433 
L 675.181032 258.564983 
L 675.345843 259.763813 
L 675.387046 259.777905 
L 676.70553 276.767154 
L 678.024015 290.889262 
L 678.353636 294.03041 
L 678.353636 294.03041 
" clip-path="url(#paf3af6357c)" style="fill: none; stroke: #1f77b4; stroke-width: 1.5; stroke-linecap: square"/>
   </g>
   <g id="patch_3">
    <path d="M 30.58 376.400464 
L 30.58 25.44 
" style="fill: none; stroke: #000000; stroke-width: 0.8; stroke-linejoin: miter; stroke-linecap: square"/>
   </g>
   <g id="patch_4">
    <path d="M 709.2 376.400464 
L 709.2 25.44 
" style="fill: none; stroke: #000000; stroke-width: 0.8; stroke-linejoin: miter; stroke-linecap: square"/>
   </g>
   <g id="patch_5">
    <path d="M 30.58 376.400464 
L 709.2 376.400464 
" style="fill: none; stroke: #000000; stroke-width: 0.8; stroke-linejoin: miter; stroke-linecap: square"/>
   </g>
   <g id="patch_6">
    <path d="M 30.58 25.44 
L 709.2 25.44 
" style="fill: none; stroke: #000000; stroke-width: 0.8; stroke-linejoin: miter; stroke-linecap: square"/>
   </g>
   <g id="text_13">
    <!-- Commits per day (half life 30d) -->
    <g transform="translate(276.134375 19.44) scale(0.12 -0.12)">
     <defs>
      <path id="DejaVuSans-43" d="M 4122 4306 
L 4122 3641 
Q 3803 3938 3442 4084 
Q 3081 4231 2675 4231 
Q 1875 4231 1450 3742 
Q 1025 3253 1025 2328 
Q 1025 1406 1450 917 
Q 1875 428 2675 428 
Q 3081 428 3442 575 
Q 3803 722 4122 1019 
L 4122 359 
Q 3791 134 3420 21 
Q 3050 -91 2638 -91 
Q 1578 -91 968 557 
Q 359 1206 359 2328 
Q 359 3453 968 4101 
Q 1578 4750 2638 4750 
Q 3056 4750 3426 4639 
Q 3797 4528 4122 4306 
z
" transform="scale(0.015625)"/>
      <path id="DejaVuSans-6f" d="M 1959 3097 
Q 1497 3097 1228 2736 
Q 959 2375 959 1747 
Q 959 1119 1226 758 
Q 1494 397 1959 397 
Q 2419 397 2687 759 
Q 2956 1122 2956 1747 
Q 2956 2369 2687 2733 
Q 2419 3097 1959 3097 
z
M 1959 3584 
Q 2709 3584 3137 3096 
Q 3566 2609 3566 1747 
Q 3566 888 3137 398 
Q 2709 -91 1959 -91 
Q 1206 -91 779 398 
Q 353 888 353 1747 
Q 353 2609 779 3096 
Q 1206 3584 1959 3584 
z
" transform="scale(0.015625)"/>
      <path id="DejaVuSans-6d" d="M 3328 2828 
Q 3544 3216 3844 3400 
Q 4144 3584 4550 3584 
Q 5097 3584 5394 3201 
Q 5691 2819 5691 2113 
L 5691 0 
L 5113 0 
L 5113 2094 
Q 5113 2597 4934 2840 
Q 4756 3084 4391 3084 
Q 3944 3084 3684 2787 
Q 3425 2491 3425 1978 
L 3425 0 
L 2847 0 
L 2847 2094 
Q 2847 2600 2669 2842 
Q 2491 3084 2119 3084 
Q 1678 3084 1418 2786 
Q 1159 2488 1159 1978 
L 1159 0 
L 581 0 
L 581 3500 
L 1159 3500 
L 1159 2956 
Q 1356 3278 1631 3431 
Q 1906 3584 2284 3584 
Q 2666 3584 2933 3390 
Q 3200 3197 3328 2828 
z
" transform="scale(0.015625)"/>
      <path id="DejaVuSans-69" d="M 603 3500 
L 1178 3500 
L 1178 0 
L 603 0 
L 603 3500 
z
M 603 4863 
L 1178 4863 
L 1178 4134 
L 603 4134 
L 603 4863 
z
" transform="scale(0.015625)"/>
      <path id="DejaVuSans-74" d="M 1172 4494 
L 1172 3500 
L 2356 3500 
L 2356 3053 
L 1172 3053 
L 1172 1153 
Q 1172 725 1289 603 
Q 1406 481 1766 481 
L 2356 481 
L 2356 0 
L 1766 0 
Q 1100 0 847 248 
Q 594 497 594 1153 
L 594 3053 
L 172 3053 
L 172 3500 
L 594 3500 
L 594 4494 
L 1172 4494 
z
" transform="scale(0.015625)"/>
      <path id="DejaVuSans-73" d="M 2834 3397 
L 2834 2853 
Q 2591 2978 2328 3040 
Q 2066 3103 1784 3103 
Q 1356 3103 1142 2972 
Q 928 2841 928 2578 
Q 928 2378 1081 2264 
Q 1234 2150 1697 2047 
L 1894 2003 
Q 2506 1872 2764 1633 
Q 3022 1394 3022 966 
Q 3022 478 2636 193 
Q 2250 -91 1575 -91 
Q 1294 -91 989 -36 
Q 684 19 347 128 
L 347 722 
Q 666 556 975 473 
Q 1284 391 1588 391 
Q 1994 391 2212 530 
Q 2431 669 2431 922 
Q 2431 1156 2273 1281 
Q 2116 1406 1581 1522 
L 1381 1569 
Q 847 1681 609 1914 
Q 372 2147 372 2553 
Q 372 3047 722 3315 
Q 1072 3584 1716 3584 
Q 2034 3584 2315 3537 
Q 2597 3491 2834 3397 
z
" transform="scale(0.015625)"/>
      <path id="DejaVuSans-20" transform="scale(0.015625)"/>
      <path id="DejaVuSans-70" d="M 1159 525 
L 1159 -1331 
L 581 -1331 
L 581 3500 
L 1159 3500 
L 1159 2969 
Q 1341 3281 1617 3432 
Q 1894 3584 2278 3584 
Q 2916 3584 3314 3078 
Q 3713 2572 3713 1747 
Q 3713 922 3314 415 
Q 2916 -91 2278 -91 
Q 1894 -91 1617 61 
Q 1341 213 1159 525 
z
M 3116 1747 
Q 3116 2381 2855 2742 
Q 2594 3103 2138 3103 
Q 1681 3103 1420 2742 
Q 1159 2381 1159 1747 
Q 1159 1113 1420 752 
Q 1681 391 2138 391 
Q 2594 391 2855 752 
Q 3116 1113 3116 1747 
z
" transform="scale(0.015625)"/>
      <path id="DejaVuSans-65" d="M 3597 1894 
L 3597 1613 
L 953 1613 
Q 991 1019 1311 708 
Q 1631 397 2203 397 
Q 2534 397 2845 478 
Q 3156 559 3463 722 
L 3463 178 
Q 3153 47 2828 -22 
Q 2503 -91 2169 -91 
Q 1331 -91 842 396 
Q 353 884 353 1716 
Q 353 2575 817 3079 
Q 1281 3584 2069 3584 
Q 2775 3584 3186 3129 
Q 3597 2675 3597 1894 
z
M 3022 2063 
Q 3016 2534 2758 2815 
Q 2500 3097 2075 3097 
Q 1594 3097 1305 2825 
Q 1016 2553 972 2059 
L 3022 2063 
z
" transform="scale(0.015625)"/>
      <path id="DejaVuSans-72" d="M 2631 2963 
Q 2534 3019 2420 3045 
Q 2306 3072 2169 3072 
Q 1681 3072 1420 2755 
Q 1159 2438 1159 1844 
L 1159 0 
L 581 0 
L 581 3500 
L 1159 3500 
L 1159 2956 
Q 1341 3275 1631 3429 
Q 1922 3584 2338 3584 
Q 2397 3584 2469 3576 
Q 2541 3569 2628 3553 
L 2631 2963 
z
" transform="scale(0.015625)"/>
      <path id="DejaVuSans-64" d="M 2906 2969 
L 2906 4863 
L 3481 4863 
L 3481 0 
L 2906 0 
L 2906 525 
Q 2725 213 2448 61 
Q 2172 -91 1784 -91 
Q 1150 -91 751 415 
Q 353 922 353 1747 
Q 353 2572 751 3078 
Q 1150 3584 1784 3584 
Q 2172 3584 2448 3432 
Q 2725 3281 2906 2969 
z
M 947 1747 
Q 947 1113 1208 752 
Q 1469 391 1925 391 
Q 2381 391 2643 752 
Q 2906 1113 2906 1747 
Q 2906 2381 2643 2742 
Q 2381 3103 1925 3103 
Q 1469 3103 1208 2742 
Q 947 2381 947 1747 
z
" transform="scale(0.015625)"/>
      <path id="DejaVuSans-61" d="M 2194 1759 
Q 1497 1759 1228 1600 
Q 959 1441 959 1056 
Q 959 750 1161 570 
Q 1363 391 1709 391 
Q 2188 391 2477 730 
Q 2766 1069 2766 1631 
L 2766 1759 
L 2194 1759 
z
M 3341 1997 
L 3341 0 
L 2766 0 
L 2766 531 
Q 2569 213 2275 61 
Q 1981 -91 1556 -91 
Q 1019 -91 701 211 
Q 384 513 384 1019 
Q 384 1609 779 1909 
Q 1175 2209 1959 2209 
L 2766 2209 
L 2766 2266 
Q 2766 2663 2505 2880 
Q 2244 3097 1772 3097 
Q 1472 3097 1187 3025 
Q 903 2953 641 2809 
L 641 3341 
Q 956 3463 1253 3523 
Q 1550 3584 1831 3584 
Q 2591 3584 2966 3190 
Q 3341 2797 3341 1997 
z
" transform="scale(0.015625)"/>
      <path id="DejaVuSans-79" d="M 2059 -325 
Q 1816 -950 1584 -1140 
Q 1353 -1331 966 -1331 
L 506 -1331 
L 506 -850 
L 844 -850 
Q 1081 -850 1212 -737 
Q 1344 -625 1503 -206 
L 1606 56 
L 191 3500 
L 800 3500 
L 1894 763 
L 2988 3500 
L 3597 3500 
L 2059 -325 
z
" transform="scale(0.015625)"/>
      <path id="DejaVuSans-28" d="M 1984 4856 
Q 1566 4138 1362 3434 
Q 1159 2731 1159 2009 
Q 1159 1288 1364 580 
Q 1569 -128 1984 -844 
L 1484 -844 
Q 1016 -109 783 600 
Q 550 1309 550 2009 
Q 550 2706 781 3412 
Q 1013 4119 1484 4856 
L 1984 4856 
z
" transform="scale(0.015625)"/>
      <path id="DejaVuSans-68" d="M 3513 2113 
L 3513 0 
L 2938 0 
L 2938 2094 
Q 2938 2591 2744 2837 
Q 2550 3084 2163 3084 
Q 1697 3084 1428 2787 
Q 1159 2491 1159 1978 
L 1159 0 
L 581 0 
L 581 4863 
L 1159 4863 
L 1159 2956 
Q 1366 3272 1645 3428 
Q 1925 3584 2291 3584 
Q 2894 3584 3203 3211 
Q 3513 2838 3513 2113 
z
" transform="scale(0.015625)"/>
      <path id="DejaVuSans-6c" d="M 603 4863 
L 1178 4863 
L 1178 0 
L 603 0 
L 603 4863 
z
" transform="scale(0.015625)"/>
      <path id="DejaVuSans-66" d="M 2375 4863 
L 2375 4384 
L 1825 4384 
Q 1516 4384 1395 4259 
Q 1275 4134 1275 3809 
L 1275 3500 
L 2222 3500 
L 2222 3053 
L 1275 3053 
L 1275 0 
L 697 0 
L 697 3053 
L 147 3053 
L 147 3500 
L 697 3500 
L 697 3744 
Q 697 4328 969 4595 
Q 1241 4863 1831 4863 
L 2375 4863 
z
" transform="scale(0.015625)"/>
      <path id="DejaVuSans-33" d="M 2597 2516 
Q 3050 2419 3304 2112 
Q 3559 1806 3559 1356 
Q 3559 666 3084 287 
Q 2609 -91 1734 -91 
Q 1441 -91 1130 -33 
Q 819 25 488 141 
L 488 750 
Q 750 597 1062 519 
Q 1375 441 1716 441 
Q 2309 441 2620 675 
Q 2931 909 2931 1356 
Q 2931 1769 2642 2001 
Q 2353 2234 1838 2234 
L 1294 2234 
L 1294 2753 
L 1863 2753 
Q 2328 2753 2575 2939 
Q 2822 3125 2822 3475 
Q 2822 3834 2567 4026 
Q 2313 4219 1838 4219 
Q 1578 4219 1281 4162 
Q 984 4106 628 3988 
L 628 4550 
Q 988 4650 1302 4700 
Q 1616 4750 1894 4750 
Q 2613 4750 3031 4423 
Q 3450 4097 3450 3541 
Q 3450 3153 3228 2886 
Q 3006 2619 2597 2516 
z
" transform="scale(0.015625)"/>
      <path id="DejaVuSans-29" d="M 513 4856 
L 1013 4856 
Q 1481 4119 1714 3412 
Q 1947 2706 1947 2009 
Q 1947 1309 1714 600 
Q 1481 -109 1013 -844 
L 513 -844 
Q 928 -128 1133 580 
Q 1338 1288 1338 2009 
Q 1338 2731 1133 3434 
Q 928 4138 513 4856 
z
" transform="scale(0.015625)"/>
     </defs>
     <use xlink:href="#DejaVuSans-43"/>
     <use xlink:href="#DejaVuSans-6f" x="69.824219"/>
     <use xlink:href="#DejaVuSans-6d" x="131.005859"/>
     <use xlink:href="#DejaVuSans-6d" x="228.417969"/>
     <use xlink:href="#DejaVuSans-69" x="325.830078"/>
     <use xlink:href="#DejaVuSans-74" x="353.613281"/>
     <use xlink:href="#DejaVuSans-73" x="392.822266"/>
     <use xlink:href="#DejaVuSans-20" x="444.921875"/>
     <use xlink:href="#DejaVuSans-70" x="476.708984"/>
     <use xlink:href="#DejaVuSans-65" x="540.185547"/>
     <use xlink:href="#DejaVuSans-72" x="601.708984"/>
     <use xlink:href="#DejaVuSans-20" x="642.822266"/>
     <use xlink:href="#DejaVuSans-64" x="674.609375"/>
     <use xlink:href="#DejaVuSans-61" x="738.085938"/>
     <use xlink:href="#DejaVuSans-79" x="799.365234"/>
     <use xlink:href="#DejaVuSans-20" x="858.544922"/>
     <use xlink:href="#DejaVuSans-28" x="890.332031"/>
     <use xlink:href="#DejaVuSans-68" x="929.345703"/>
     <use xlink:href="#DejaVuSans-61" x="992.724609"/>
     <use xlink:href="#DejaVuSans-6c" x="1054.003906"/>
     <use xlink:href="#DejaVuSans-66" x="1081.787109"/>
     <use xlink:href="#DejaVuSans-20" x="1116.992188"/>
     <use xlink:href="#DejaVuSans-6c" x="1148.779297"/>
     <use xlink:href="#DejaVuSans-69" x="1176.5625"/>
     <use xlink:href="#DejaVuSans-66" x="1204.345703"/>
     <use xlink:href="#DejaVuSans-65" x="1239.550781"/>
     <use xlink:href="#DejaVuSans-20" x="1301.074219"/>
     <use xlink:href="#DejaVuSans-33" x="1332.861328"/>
     <use xlink:href="#DejaVuSans-30" x="1396.484375"/>
     <use xlink:href="#DejaVuSans-64" x="1460.107422"/>
     <use xlink:href="#DejaVuSans-29" x="1523.583984"/>
    </g>
   </g>
   <g id="legend_1">
    <g id="patch_7">
     <path d="M 645.60625 48.118125 
L 702.2 48.118125 
Q 704.2 48.118125 704.2 46.118125 
L 704.2 32.44 
Q 704.2 30.44 702.2 30.44 
L 645.60625 30.44 
Q 643.60625 30.44 643.60625 32.44 
L 643.60625 46.118125 
Q 643.60625 48.118125 645.60625 48.118125 
z
" style="fill: #ffffff; opacity: 0.8; stroke: #cccccc; stroke-linejoin: miter"/>
    </g>
    <g id="line2d_26">
     <path d="M 647.60625 38.538438 
L 657.60625 38.538438 
L 667.60625 38.538438 
" style="fill: none; stroke: #1f77b4; stroke-width: 1.5; stroke-linecap: square"/>
    </g>
    <g id="text_14">
     <!-- stdin -->
     <g transform="translate(675.60625 42.038438) scale(0.1 -0.1)">
      <defs>
       <path id="DejaVuSans-6e" d="M 3513 2113 
L 3513 0 
L 2938 0 
L 2938 2094 
Q 2938 2591 2744 2837 
Q 2550 3084 2163 3084 
Q 1697 3084 1428 2787 
Q 1159 2491 1159 1978 
L 1159 0 
L 581 0 
L 581 3500 
L 1159 3500 
L 1159 2956 
Q 1366 3272 1645 3428 
Q 1925 3584 2291 3584 
Q 2894 3584 3203 3211 
Q 3513 2838 3513 2113 
z
" transform="scale(0.015625)"/>
      </defs>
      <use xlink:href="#DejaVuSans-73"/>
      <use xlink:href="#DejaVuSans-74" x="52.099609"/>
      <use xlink:href="#DejaVuSans-64" x="91.308594"/>
      <use xlink:href="#DejaVuSans-69" x="154.785156"/>
      <use xlink:href="#DejaVuSans-6e" x="182.568359"/>
     </g>
    </g>
   </g>
  </g>
 </g>
 <defs>
  <clipPath id="paf3af6357c">
   <rect x="30.58" y="25.44" width="678.62" height="350.960464"/>
  </clipPath>
 </defs>
</svg>
